<svg xmlns="http://www.w3.org/2000/svg" viewBox="0 0 100 100" width="100" height="100"><path fill="#fcba7f" d="M83,56.16l-9.176-1.91c-0.505-0.091-0.831-0.533-0.823-1.001c0.002-0.161,0.045-0.326,0.132-0.479 L76,47l-8.812,2.979C67.12,49.993,67.053,50,66.988,50c-0.569,0.004-0.998-0.476-1-1c-0.001-0.195,0.057-0.396,0.188-0.58L78,28h-7 c-1.105,0-2-0.895-2-2l-1-12c0,0-5.625,6-8.375,8.48c-0.394,0.355-0.884,0.527-1.371,0.52c-0.596-0.008-1.185-0.281-1.574-0.8L52,16 l-7.065,23.327C44.782,39.769,44.392,39.996,44,40c-0.378,0.004-0.759-0.199-0.933-0.615L38,30c0,0-2.073,3.681-3.676,6.497 c-0.18,0.317-0.499,0.501-0.827,0.502c-0.229,0.001-0.495-0.072-0.699-0.249C32.782,36.736,24,29,24,29v12c0,0.552-0.448,1-1,1h-6 l10.816,15.102c0.125,0.178,0.185,0.38,0.184,0.581c-0.001,0.343-0.186,0.664-0.501,0.862L22,62l21,6l16,11v-6 c0-0.534,0.467-0.975,1-1h20c0,0-3.092-3.701-5.705-6.297C74.1,65.509,74.002,65.255,74,65c-0.002-0.26,0.098-0.521,0.298-0.719 L83,56.16z"/><path fill="#1f212b" d="M59,80c-0.199,0-0.396-0.059-0.566-0.176L42.568,68.917l-20.843-5.955 c-0.379-0.108-0.66-0.43-0.715-0.82c-0.055-0.391,0.124-0.778,0.458-0.988l5.499-3.456L16.187,42.583 c-0.218-0.305-0.248-0.706-0.077-1.04C16.282,41.209,16.625,41,17,41h6V29c0-0.393,0.23-0.75,0.588-0.911 c0.358-0.162,0.777-0.1,1.073,0.161l8.797,7.75c1.598-2.81,3.67-6.489,3.67-6.49c0.179-0.317,0.56-0.491,0.88-0.509 c0.364,0.003,0.698,0.204,0.871,0.525l5.067,9.385c0.016,0.029,0.03,0.06,0.043,0.09l7.053-23.29 c0.109-0.36,0.411-0.628,0.782-0.694c0.373-0.067,0.747,0.082,0.974,0.382l4.68,6.2c0.189,0.252,0.476,0.398,0.79,0.403 c0.226,0.003,0.496-0.09,0.688-0.263c2.688-2.424,8.259-8.361,8.315-8.421c0.27-0.289,0.687-0.391,1.058-0.26 c0.374,0.13,0.635,0.467,0.668,0.861l1,12C70,26.551,70.449,27,71,27h7c0.357,0,0.688,0.191,0.866,0.5 c0.179,0.31,0.178,0.691-0.001,1l-11.823,20.42c0,0-0.026,0.041-0.042,0.067l8.68-2.935c0.383-0.128,0.808-0.015,1.074,0.29 s0.322,0.74,0.142,1.103l-2.867,5.77l9.175,1.967c0.366,0.076,0.659,0.35,0.759,0.709s-0.007,0.746-0.281,1l-8.702,8.121 c2.636,2.581,5.66,6.194,5.788,6.347c0.249,0.298,0.303,0.713,0.138,1.065C80.741,72.775,80.388,73,80,73H60v6 c0,0.372-0.206,0.712-0.535,0.885C59.319,79.962,59.159,80,59,80z M24.43,61.654l18.845,5.384c0.104,0.03,0.203,0.076,0.292,0.137 L58,77.099V73c0-1.051,0.876-1.948,1.953-1.999L77.827,71c-1.131-1.298-2.769-3.13-4.236-4.587c-0.378-0.376-0.587-0.875-0.59-1.407 c-0.004-0.536,0.213-1.06,0.596-1.437l7.311-6.823l-7.287-1.517c-0.942-0.169-1.634-1.01-1.62-1.995 c0.005-0.335,0.097-0.667,0.265-0.961l1.764-3.551l-6.52,2.205c-0.041,0.014-0.082,0.025-0.124,0.033 c-0.138,0.028-0.27,0.037-0.401,0.04c-0.526,0-1.021-0.204-1.396-0.576c-0.379-0.375-0.598-0.893-0.6-1.42 c-0.002-0.416,0.127-0.819,0.375-1.165L76.266,29H71c-1.654,0-3-1.346-3-3l-0.81-9.689c-1.875,1.968-5.017,5.218-6.895,6.912 c-0.567,0.511-1.298,0.764-2.055,0.777c-0.938-0.013-1.798-0.451-2.361-1.2l-3.493-4.627l-6.495,21.445 C45.6,40.463,44.866,40.991,44.01,41c-0.007,0-0.014,0-0.021,0c-0.79,0-1.497-0.458-1.821-1.177l-4.187-7.754 c-0.751,1.331-1.85,3.274-2.788,4.922c-0.353,0.62-1.002,1.005-1.693,1.007c-0.003,0-0.006,0-0.009,0 c-0.495,0-0.986-0.179-1.348-0.493c-0.016-0.014-4.596-4.049-7.143-6.292V41c0,1.103-0.897,2-2,2h-4.054l9.683,13.52 c0.246,0.349,0.372,0.75,0.371,1.166c-0.002,0.69-0.365,1.328-0.971,1.707L24.43,61.654z"/><path fill="#1f212b" d="M58.625 40c-.215 0-.413-.139-.479-.355l-2.125-7c-.08-.264.069-.543.333-.624.264-.08.543.07.624.333l2.125 7c.08.264-.069.543-.333.624C58.722 39.993 58.673 40 58.625 40zM35.182 50.076l-6.761-1.082c-.272-.043-.458-.3-.415-.573.043-.273.298-.459.573-.415l5.739.918.686-5.486c.035-.274.285-.469.558-.434.274.034.468.284.434.558L35.182 50.076zM59.5 63c-6.063 0-9.601-1.981-9.748-2.066-.24-.137-.323-.441-.186-.681.136-.24.44-.324.682-.188C50.282 60.085 53.722 62 59.5 62c6.104 0 10.759-1.941 10.805-1.96.251-.106.548.01.655.266.107.254-.011.547-.266.655C70.498 61.044 65.805 63 59.5 63z"/><path fill="#1f212b" d="M47.5,60c-0.057,0-0.114-0.01-0.171-0.03c-11.068-4.025-17.035-16.722-17.283-17.26 c-0.116-0.25-0.006-0.547,0.245-0.664s0.548-0.007,0.664,0.245C31.013,42.418,37,55.149,47.671,59.03 c0.259,0.094,0.394,0.381,0.299,0.641C47.896,59.874,47.704,60,47.5,60z"/><path fill="#b07454" d="M44.25,68.875C59.75,47.125,62.5,29.5,62.5,29.5c-6,18-14.688,29.917-20,37c-9,12-15,16-15,16 s2,1,2,4C29.5,86.5,35.88,80.62,44.25,68.875z"/><path fill="#1f212b" d="M29.5 87c-.068 0-.136-.014-.201-.042C29.118 86.878 29 86.699 29 86.5c0-2.629-1.656-3.518-1.727-3.554-.157-.082-.261-.241-.271-.417-.01-.177.073-.346.22-.445.06-.04 6.049-4.112 14.878-15.884 4.463-5.951 13.75-18.334 19.926-36.858.082-.247.341-.388.592-.328.252.062.416.306.376.563-.028.177-2.946 17.992-18.337 39.588-8.304 11.653-14.754 17.644-14.818 17.703C29.745 86.955 29.623 87 29.5 87zM28.354 82.499c.552.483 1.303 1.395 1.557 2.905 1.921-1.908 7.33-7.556 13.931-16.819l.407.29-.407-.29c8.154-11.441 12.773-21.797 15.311-28.983C53.379 52.829 46.543 61.942 42.9 66.8 35.432 76.757 30.069 81.204 28.354 82.499zM34.5 59c-.233 0-.441-.164-.489-.4-.055-.271.12-.535.39-.589l7.6-1.544V53.5c0-.276.224-.5.5-.5s.5.224.5.5v3.784l-8.4 1.706C34.566 58.997 34.532 59 34.5 59z"/><path fill="#1f212b" d="M56.25 49c-.196 0-.382-.116-.462-.309-.105-.255.016-.548.271-.653l7.25-3c.255-.105.548.016.653.271.105.255-.016.548-.271.653l-7.25 3C56.379 48.988 56.314 49 56.25 49zM58.5 69c-.168 0-.332-.084-.426-.238l-4-6.5c-.117-.19-.094-.434.056-.599l5-5.5c.187-.204.503-.218.707-.034.204.186.219.502.034.707l-4.747 5.222 3.803 6.18c.145.235.071.543-.164.688C58.68 68.976 58.59 69 58.5 69zM42.5 51c-.276 0-.5-.224-.5-.5v-2c0-.276.224-.5.5-.5s.5.224.5.5v2C43 50.776 42.776 51 42.5 51zM54.25 48.875c-.177 0-.349-.094-.439-.261l-1.568-2.875c-.132-.242-.043-.546.2-.678.242-.132.545-.042.678.2l1.568 2.875c.132.242.043.546-.2.678C54.414 48.855 54.332 48.875 54.25 48.875zM51.591 44c-.177 0-.349-.094-.439-.261l-1.091-2c-.132-.242-.043-.546.2-.678.242-.133.545-.043.678.2l1.091 2c.132.242.043.546-.2.678C51.754 43.98 51.672 44 51.591 44zM64.5 36.729c-.154 0-.307-.071-.404-.206-.163-.223-.114-.536.109-.698l1-.729c.223-.163.536-.113.698.109.163.223.114.536-.109.698l-1 .729C64.706 36.698 64.603 36.729 64.5 36.729zM59.5 40.375c-.154 0-.307-.071-.404-.206-.163-.223-.114-.536.109-.698l3-2.188c.223-.163.536-.114.698.109.163.223.114.536-.109.698l-3 2.188C59.706 40.344 59.603 40.375 59.5 40.375zM65.5 64.098c-.092 0-.184-.025-.267-.078l-2.125-1.348c-.123-.078-.206-.206-.227-.35s.021-.29.117-.4l4.125-4.75c.181-.21.498-.23.705-.05.208.181.231.497.05.705l-3.744 4.312 1.634 1.036c.233.148.303.457.155.69C65.827 64.016 65.665 64.098 65.5 64.098zM68.5 66c-.092 0-.184-.025-.267-.078l-1-.634c-.233-.148-.303-.457-.155-.69.147-.234.457-.302.69-.155l1 .634c.233.148.303.457.155.69C68.827 65.918 68.665 66 68.5 66z"/></svg>